HIERARCHY
ROOT Hips
{
  OFFSET 0 0 0
  CHANNELS 6 Xposition Yposition Zposition Zrotation Yrotation Xrotation
  JOINT LeftThigh
  {
    OFFSET 8.409438 0 -5.917753
    CHANNELS 3 Zrotation Yrotation Xrotation
    JOINT LeftLeg
    {
      OFFSET 0 0 -42.358652
      CHANNELS 3 Zrotation Yrotation Xrotation
      JOINT LeftFoot
      {
        OFFSET 0 0 -39.357303
        CHANNELS 3 Zrotation Yrotation Xrotation
      }
    }
  }
  JOINT RightThigh
  {
    OFFSET -8.409438 0 -5.917753
    CHANNELS 3 Zrotation Yrotation Xrotation
    JOINT RightLeg
    {
      OFFSET 0 0 -42.358652
      CHANNELS 3 Zrotation Yrotation Xrotation
      JOINT RightFoot
      {
        OFFSET 0 0 -39.357303
        CHANNELS 3 Zrotation Yrotation Xrotation
      }
    }
  }
  JOINT SpineLow
  {
    OFFSET 0 0 4.719101
    CHANNELS 3 Zrotation Yrotation Xrotation
    JOINT SpineMid
    {
      OFFSET 0 0 12.899191
      CHANNELS 3 Zrotation Yrotation Xrotation
      JOINT Chest
      {
        OFFSET 0 0 12.899191
        CHANNELS 3 Zrotation Yrotation Xrotation
        JOINT LeftShoulder
        {
          OFFSET 7.550562 1.41573 9.438202
          CHANNELS 3 Zrotation Yrotation Xrotation
          JOINT LeftArm
          {
            OFFSET 9.155056 0 4.247191
            CHANNELS 3 Zrotation Yrotation Xrotation
            JOINT LeftForearm
            {
              OFFSET 0 0 25.771955
              CHANNELS 3 Zrotation Yrotation Xrotation
              JOINT LeftHand
              {
                OFFSET 0 0 25.197169
                CHANNELS 3 Zrotation Yrotation Xrotation
              }
            }
          }
        }
        JOINT RightShoulder
        {
          OFFSET -7.550562 1.41573 9.438202
          CHANNELS 3 Zrotation Yrotation Xrotation
          JOINT RightArm
          {
            OFFSET -9.155056 0 4.247191
            CHANNELS 3 Zrotation Yrotation Xrotation
            JOINT RightForearm
            {
              OFFSET 0 0 -25.771955
              CHANNELS 3 Zrotation Yrotation Xrotation
              JOINT RightHand
              {
                OFFSET 0 0 -25.197169
                CHANNELS 3 Zrotation Yrotation Xrotation
              }
            }
          }
        }
        JOINT Neck
        {
          OFFSET 0 0 15.101124
          CHANNELS 3 Zrotation Yrotation Xrotation
          JOINT Head
          {
            OFFSET 0 0 11.325843
            CHANNELS 3 Zrotation Yrotation Xrotation
            End Site
            {
              OFFSET 0 0 14.157303
            }
          }
        }
      }
    }
  }
}
MOTION
Frames: 14
Frame Time: 0.0
0.0  89.887642  0.0  -0.161044  -51.656193  -105.420145  24.553815  -22.091589  13.420497  9.056928  1.831516  27.461512  2.227003  -0.839211  0.396905  -1.636523  3.336862  -11.952124  12.258817  -0.923212  35.798366  8.579632  3.077864  0.449681  -1.694829  -0.083715  0.505894  -4.634175  -0.193248  1.3879  -4.634175  -0.193248  1.3879  -15.117438  19.356097  15.083627  133.680996  49.539953  -151.474215  -79.1476  3.607326  65.936693  89.914186  8.075413  -20.530297  0.683854  -20.879447  20.658353  86.297168  29.848094  21.993146  10.7965  39.295354  -54.468882  92.204654  -31.652032  5.476937  9.5878  -13.379597  -14.131481  6.847645  -10.264307  -10.33962  
0.0  89.887642  0.0  -0.733594  -47.511472  -105.046827  24.01385  -22.233887  13.614613  7.201205  1.961342  24.853038  2.494924  -0.804368  0.838066  -3.512201  3.744603  -9.35854  11.745836  0.568939  32.758963  8.221904  3.308667  0.343214  -2.136077  -0.214989  0.385015  -5.842133  -0.55312  1.070459  -5.842133  -0.55312  1.070459  -15.180751  19.915309  15.230412  141.034576  51.633505  -145.203286  -79.735696  7.122949  62.950014  92.309814  9.845691  -22.632239  -1.115202  -18.365117  18.905013  86.689857  26.754926  24.762495  2.002876  34.53175  -63.291413  89.270757  -30.45676  8.303188  8.836332  -12.248644  -13.50748  6.330972  -9.388391  -9.91464  
0.0  89.887642  0.0  -1.589007  -42.429281  -104.049805  22.456177  -22.234727  12.921639  6.359672  2.025862  23.248344  2.133768  -0.854275  0.768711  -5.58044  4.261257  -7.006442  10.482805  1.879542  29.386807  7.506224  3.3835  0.153862  -2.33833  -0.272636  0.196894  -6.393999  -0.725392  0.563977  -6.393999  -0.725392  0.563977  -16.974514  19.61408  15.244789  148.162462  53.730188  -138.940203  -76.809484  7.40873  59.227443  91.588077  10.324265  -25.630865  -4.359367  -16.338184  17.806631  82.196251  24.018407  26.075394  -2.52009  30.284048  -72.122065  88.319596  -25.704018  9.570316  6.569549  -11.401822  -13.006863  4.667688  -8.696329  -9.600018  
0.0  89.887642  0.0  -2.31754  -36.756283  -103.210857  20.464411  -22.140465  12.065393  4.167022  2.16966  20.879571  2.801056  -0.45105  1.532674  -7.419678  5.058682  -4.56636  8.485756  2.916077  25.824935  6.828485  3.363463  -0.042499  -2.45993  -0.172528  0.174492  -6.725275  -0.453289  0.493932  -6.725275  -0.453289  0.493932  -19.397845  17.944887  14.0978  154.55338  55.735951  -132.88542  -72.21123  6.280291  59.046437  92.113985  14.594903  -26.218436  -7.402569  -15.453046  16.03382  74.114462  22.132566  26.643834  -3.167906  26.876423  -81.418205  88.719175  -22.963574  8.019274  3.681487  -11.037244  -13.136453  2.513945  -8.361609  -9.754833  
0.0  89.887642  0.0  -2.805212  -31.025353  -102.60828  18.636809  -21.995794  11.193528  3.002066  2.441696  19.6194  2.454524  -0.486151  1.40147  -8.649515  6.01208  -2.027438  5.891362  3.669277  22.144971  6.215643  3.225391  -0.241157  -2.739737  -0.184931  0.231133  -7.490609  -0.47858  0.651788  -7.490608  -0.47858  0.651788  -20.627782  16.755962  11.836694  158.648793  57.632296  -127.589547  -70.185854  5.277947  58.978375  100.087268  18.926433  -21.619871  -9.294119  -13.330192  13.421213  65.128808  19.648479  27.015902  -0.837423  23.508723  -89.492683  89.369631  -18.918803  5.824969  1.360462  -10.264641  -13.501825  0.789039  -7.732903  -10.076071  
0.0  89.887642  0.0  -3.10282  -25.51497  -102.123289  17.333831  -21.881464  10.298071  1.647514  2.829582  18.288438  2.057196  -0.520726  1.278468  -8.954521  6.900836  0.431002  2.495485  4.121519  18.629827  5.743957  3.044807  -0.408327  -3.107594  -0.319386  0.302408  -8.498556  -0.832525  0.86607  -8.498556  -0.832525  0.86607  -20.508275  16.059971  9.322656  161.82693  59.642791  -121.899191  -64.799539  0.809854  58.940711  107.54414  21.636032  -15.813816  -9.419666  -11.170441  10.407877  56.595243  17.669427  29.016973  3.352948  20.010044  -95.370414  88.96365  -13.734423  3.660222  -0.352129  -9.068209  -14.151298  -0.475457  -6.797316  -10.596433  
0.0  89.887642  0.0  -3.064098  -20.223343  -101.798715  16.374288  -21.791411  9.271221  0.239584  3.40728  17.103141  1.619879  -0.524486  1.19205  -8.449184  7.742351  2.661528  -1.805505  4.418237  15.582596  5.251771  2.864189  -0.519291  -3.41577  -0.507541  0.389571  -9.345733  -1.329139  1.134145  -9.345733  -1.329139  1.134145  -19.997599  15.558105  7.04503  167.130934  61.712745  -113.548123  -53.548627  -7.002823  59.408468  111.004646  25.859315  -10.586927  -9.105616  -9.194945  7.736988  50.574706  16.62905  34.151503  6.582751  15.043714  -101.336438  88.416896  -7.994498  0.25486  -1.768216  -7.574016  -15.301847  -1.51604  -5.640543  -11.481706  
0.0  89.887642  0.0  -2.867892  -15.04016  -101.475137  16.250189  -21.670256  8.184411  -1.785833  3.737777  15.823263  1.458328  -0.417179  1.103343  -7.691958  8.14412  4.564246  -6.771322  4.936015  13.093512  4.770146  2.714094  -0.551804  -3.61139  -0.710243  0.51395  -9.888377  -1.859657  1.507514  -9.888377  -1.859657  1.507514  -20.082911  14.755937  4.439452  175.74348  63.63989  -102.660376  -40.091817  -14.043457  58.412329  114.446169  30.961755  -5.081  -9.17415  -6.869875  5.915846  46.875963  15.570208  41.07364  7.412363  9.822197  -108.25467  88.068248  -4.879315  -5.184035  -3.075781  -6.045457  -17.085726  -2.476626  -4.452423  -12.83323  
0.0  89.887642  0.0  -2.506849  -10.553659  -100.801975  17.254914  -21.339486  6.843365  -3.697651  3.577467  14.577333  1.02678  -0.385194  1.013218  -6.944181  7.862117  5.783816  -11.687763  5.964228  10.891376  4.222873  2.626244  -0.506145  -3.656397  -0.808917  0.618741  -10.017507  -2.111693  1.809531  -10.017508  -2.111693  1.809531  -20.432777  12.716334  2.194619  -172.280319  65.214043  -88.922979  -28.068397  -18.36419  55.100202  118.97453  34.829983  0.502469  -9.313319  -5.081401  7.197693  42.804341  15.841625  46.136359  8.163853  8.108974  -111.762718  87.137963  -3.349643  -8.267551  -4.190565  -5.028354  -19.205519  -3.303231  -3.644075  -14.430171  
0.0  89.887642  0.0  -1.763082  -7.425766  -100.967039  18.640168  -20.833184  6.815633  -5.349263  2.991029  13.153964  0.398963  -0.365757  1.030367  -7.017901  7.686447  6.70937  -14.651073  7.961441  9.329052  3.644104  1.860525  -0.354282  -3.582364  -0.705395  0.809292  -9.816647  -1.803301  2.31142  -9.816647  -1.803301  2.31142  -19.867737  9.439259  1.126723  -158.869488  66.510438  -73.721761  -19.225371  -22.001926  51.520542  124.333436  36.663097  7.228208  -8.280177  -5.116292  10.097439  38.656853  16.856086  50.587055  7.648562  5.805682  -113.080879  88.649232  -3.282903  -7.809338  -4.834252  -4.565496  -21.164853  -3.787663  -3.261577  -15.90251  
0.0  89.887642  0.0  -0.923463  -5.44468  -102.111557  19.567104  -20.604731  8.430592  -6.781713  2.305536  11.558118  -0.084018  -0.46608  0.875853  -9.306778  8.887709  7.350601  -15.081777  8.591117  9.057978  3.593962  1.821223  -0.325919  -3.833619  -0.594764  1.243167  -10.507729  -1.423833  3.482895  -10.507729  -1.423833  3.482895  -16.700605  5.758056  -0.166093  -144.972587  67.001361  -58.083264  -11.892225  -25.844609  47.827234  130.103656  35.692561  14.76572  -4.603697  -4.405153  13.67391  35.483925  16.844946  51.9733  6.812921  3.785161  -111.248998  90.300691  -3.845004  -4.043631  -3.539368  -4.285185  -23.367564  -2.822438  -3.083995  -17.542974  
0.0  89.887642  0.0  -0.434407  -5.324906  -102.386199  20.587679  -20.474461  9.631357  -7.997162  1.700029  9.883096  -0.079225  -0.617647  0.515938  -12.344723  10.412428  6.806793  -13.49211  8.495996  9.123167  3.751993  1.954679  -0.253745  -3.917634  -0.660172  1.457701  -10.745657  -1.562636  4.079943  -10.745657  -1.562636  4.079943  -13.677041  2.570017  -0.776429  -134.497031  66.703084  -46.338399  -4.790154  -29.825131  43.625558  134.270645  31.485609  20.948199  -5.436553  0.057445  14.630712  40.389567  13.641604  53.98073  6.406083  0.766634  -108.045704  86.261377  -4.327341  -0.058959  -1.999684  -3.827815  -25.057472  -1.659823  -2.794445  -18.798831  
0.0  89.887642  0.0  0.149623  -6.167777  -101.460025  21.184093  -19.716023  10.014713  -8.716588  1.199891  8.154029  0.113624  -0.786  0.224337  -15.523048  11.711538  4.727556  -10.978668  8.32571  9.467285  4.371606  2.018037  -0.259732  -3.469935  -0.6578  1.495256  -9.522915  -1.578774  4.172468  -9.522915  -1.578774  4.172468  -14.10124  -1.735132  -1.679556  -121.623909  66.323648  -35.533374  0.051222  -31.783833  40.710829  134.488504  26.381246  23.869102  -4.217869  -0.873598  13.621142  41.534742  12.26921  57.906109  8.049474  -4.593774  -104.02754  78.174171  -1.903095  -1.932783  -2.313705  -3.956444  -26.444803  -1.910465  -2.873597  -19.840979  
0.0  89.887642  0.0  1.085329  -7.030176  -100.08128  20.696058  -18.343266  10.233541  -8.405957  0.828042  6.504405  0.538517  -0.933367  0.195385  -18.541191  12.824214  1.814928  -8.323011  8.150043  10.238743  5.292817  2.087981  -0.360545  -2.599412  -0.555858  1.309197  -7.13389  -1.376258  3.634001  -7.13389  -1.376258  3.634001  -16.967504  -6.078953  -1.006839  -108.497502  63.938286  -25.021889  3.745691  -30.770044  39.119328  131.897612  23.332202  23.444184  -7.216979  -0.84012  13.69435  44.023709  10.554729  59.403625  12.330864  -12.446883  -102.191239  72.764406  0.990526  -7.695271  -4.817281  -4.403663  -27.078303  -3.815748  -3.09663  -20.33486  
